<?xml version="1.0" encoding="utf-8"?>
<!-- Generator: Adobe Illustrator 22.0.1, SVG Export Plug-In . SVG Version: 6.00 Build 0)  -->
<svg version="1.1" id="Ebene_1" xmlns="http://www.w3.org/2000/svg" xmlns:xlink="http://www.w3.org/1999/xlink" x="0px" y="0px"
	 viewBox="0 0 2881.1 1126.7" style="enable-background:new 0 0 2881.1 1126.7;" xml:space="preserve">
<style type="text/css">
	.st0{enable-background:new    ;}
</style>
<title>Group 3</title>
<desc>Created with Sketch.</desc>
<g id="Clip-4">
</g>
<g>
	<g>
		<path id="Fill-1" d="M266.3,321.9c-20.8-11.3-47.2-18.9-69.9-18.9c-15.1,0-41.5,5.7-41.5,24.6c0,24.6,41.5,28.3,58.5,32.1
			c62.3,15.1,107.7,43.4,107.7,113.3c0,98.2-88.8,137.9-173.8,137.9C94.4,610.8,43.4,595.7,0,567.4l47.2-92.5
			c26.4,18.9,69.9,37.8,103.9,37.8c17,0,41.5-7.6,41.5-28.3c0-28.3-41.5-30.2-81.2-41.5c-41.5-11.3-81.2-32.1-81.2-98.2
			c0-90.7,81.2-132.2,162.4-132.2c41.5,0,83.1,5.7,120.9,24.6L266.3,321.9z"/>
		<path id="Fill-3" d="M937.6,900.9c-32.1,0-39.7-32.1-39.7-69.9c0-52.9,45.3-222.9,119-222.9c24.6,0,34,17,34,41.5
			C1050.9,698.8,1007.5,900.9,937.6,900.9 M1062.3,562.8c-64.2,0-96.3,37.8-124.6,85h-1.9l22.7-85c-26.4,9.4-71.8,11.3-119,11.3
			H690.2l13.2-52.9c18.9-73.7,30.2-109.5,52.9-109.5c11.3,0,17,7.6,17,15.1c0,9.4-9.4,26.4-9.4,47.2c0,22.7,18.9,43.4,47.2,43.4
			c39.7,0,54.8-26.4,54.8-56.7c0-52.9-47.2-73.7-96.3-73.7c-111.5,0.2-173.8,70-196.5,185.2h-77.4V0H365.4v594.9h204l-90.7,370.2
			c-17,71.8-34,109.5-47.2,109.5c-5.7,0-15.1-3.8-15.1-20.8c0-3.8,3.8-26.4,3.8-32.1c0-22.7-5.7-51-45.3-51
			c-34,0-54.8,24.6-54.8,56.7c0,47.2,39.7,69.9,81.2,69.9c73.7,0,171.9-49.1,211.5-217.2L682.7,593h103.9c18.9,0,34,3.8,34,30.2
			c0,13.2-3.8,32.1-7.6,43.4l-120.9,419.3h115.2l62.3-224.7h1.9c13.2,54.8,32.1,81.2,92.5,81.2c126.5,0,194.5-145.4,194.5-243.6
			C1162.4,634.6,1141.6,562.8,1062.3,562.8"/>
	</g>
	<g class="st0">
		<path d="M1507,446.6h74.6v13.3h-60.3v39.8h56.1V513h-56.1v54.1H1507V446.6z"/>
		<path d="M1594.5,527.1c0-6.2,1.1-11.9,3.2-17c2.2-5.1,5.1-9.5,8.8-13.2c3.7-3.7,8.2-6.5,13.4-8.6c5.2-2,10.9-3.1,17-3.1
			s11.8,1,17,3.1c5.2,2,9.7,4.9,13.4,8.6c3.7,3.7,6.7,8.1,8.8,13.2c2.2,5.1,3.2,10.8,3.2,17s-1.1,11.9-3.2,17
			c-2.2,5.1-5.1,9.5-8.8,13.2c-3.7,3.7-8.2,6.5-13.4,8.6c-5.2,2-10.9,3.1-17,3.1s-11.8-1-17-3.1c-5.2-2-9.7-4.9-13.4-8.6
			c-3.7-3.7-6.7-8.1-8.8-13.2C1595.6,539,1594.5,533.4,1594.5,527.1z M1608.8,527.1c0,4.2,0.7,8.1,2,11.6c1.3,3.6,3.2,6.7,5.7,9.3
			c2.5,2.7,5.5,4.8,8.9,6.3c3.5,1.5,7.3,2.3,11.6,2.3c4.3,0,8.2-0.8,11.6-2.3c3.5-1.5,6.4-3.6,8.9-6.3s4.4-5.8,5.7-9.3
			c1.3-3.6,2-7.4,2-11.6c0-4.2-0.7-8.1-2-11.6c-1.3-3.6-3.2-6.7-5.7-9.3c-2.5-2.7-5.5-4.8-8.9-6.3c-3.5-1.5-7.3-2.3-11.6-2.3
			c-4.3,0-8.2,0.8-11.6,2.3c-3.5,1.5-6.4,3.6-8.9,6.3c-2.5,2.7-4.4,5.8-5.7,9.3C1609.4,519,1608.8,522.9,1608.8,527.1z"/>
		<path d="M1700.1,506.2c0-3.6-0.1-7-0.3-10.2c-0.2-3.2-0.3-6.1-0.3-8.7h12.6c0,2.2,0.1,4.3,0.2,6.5s0.2,4.4,0.2,6.6h0.3
			c0.9-1.9,2.2-3.8,3.8-5.6c1.6-1.8,3.6-3.4,5.9-4.8s4.8-2.5,7.6-3.4c2.8-0.8,5.9-1.3,9.2-1.3c5.2,0,9.7,0.8,13.5,2.4
			s6.9,3.8,9.4,6.6c2.5,2.8,4.3,6.3,5.5,10.3s1.8,8.4,1.8,13.2v49.1h-13.3v-47.8c0-6.7-1.5-12-4.4-15.8c-2.9-3.9-7.5-5.8-13.8-5.8
			c-4.3,0-8,0.7-11.1,2.2s-5.7,3.6-7.6,6.3c-2,2.7-3.5,5.9-4.4,9.7c-1,3.7-1.4,7.9-1.4,12.4v38.8h-13.3L1700.1,506.2L1700.1,506.2z"
			/>
		<path d="M1860.7,552.8h-0.3c-2.5,4.5-6.4,8.4-11.8,11.5s-11.6,4.7-18.8,4.7c-5.6,0-10.8-1-15.6-3.1c-4.9-2.1-9.1-5-12.7-8.8
			s-6.4-8.2-8.4-13.3s-3.1-10.7-3.1-16.7s1-11.6,3.1-16.7c2-5.1,4.9-9.5,8.5-13.3c3.6-3.7,8-6.7,13.2-8.8c5.2-2.1,10.8-3.1,17.1-3.1
			c5.8,0,11.1,1.2,15.9,3.6s9,5.7,12.7,10h0.3v-60.5h13.3v128.5h-13.3L1860.7,552.8L1860.7,552.8z M1860.7,527.1
			c0-4.2-0.7-8.1-2-11.6c-1.3-3.6-3.2-6.7-5.7-9.3c-2.5-2.7-5.5-4.8-8.9-6.3c-3.5-1.5-7.3-2.3-11.6-2.3c-4.3,0-8.2,0.8-11.6,2.3
			c-3.5,1.5-6.4,3.6-8.9,6.3c-2.5,2.7-4.4,5.8-5.7,9.3c-1.3,3.6-2,7.5-2,11.6c0,4.2,0.7,8.1,2,11.6c1.3,3.6,3.2,6.7,5.7,9.3
			c2.5,2.7,5.5,4.8,8.9,6.3c3.5,1.5,7.3,2.3,11.6,2.3c4.3,0,8.2-0.8,11.6-2.3c3.5-1.5,6.4-3.6,8.9-6.3s4.4-5.8,5.7-9.3
			C1860,535.2,1860.7,531.3,1860.7,527.1z"/>
		<path d="M1897.4,497.5c4.1-4.2,8.9-7.3,14.5-9.3s11.3-3,17.1-3c11.8,0,20.3,2.8,25.5,8.3c5.2,5.6,7.8,14,7.8,25.3V553
			c0,2.3,0.1,4.6,0.3,7.1c0.2,2.4,0.5,4.7,0.8,6.7h-12.7c-0.5-1.8-0.7-3.8-0.8-6c-0.1-2.2-0.1-4.2-0.1-5.9h-0.3
			c-2.6,4.1-6.1,7.4-10.5,10s-9.6,3.9-15.7,3.9c-4.1,0-7.9-0.5-11.5-1.5s-6.7-2.5-9.3-4.5c-2.7-2-4.8-4.4-6.4-7.4
			c-1.6-2.9-2.4-6.3-2.4-10.2c0-6.6,1.7-11.7,5.1-15.5c3.4-3.7,7.6-6.5,12.7-8.3c5-1.8,10.5-2.9,16.3-3.4s11.2-0.7,16.1-0.7h5.1
			v-2.4c0-5.8-1.7-10.1-5.2-13.1c-3.5-2.9-8.3-4.4-14.5-4.4c-4.3,0-8.5,0.7-12.7,2.1c-4.1,1.4-7.8,3.6-11,6.5L1897.4,497.5z
			 M1935.8,528.6c-8.5,0-15.2,1.2-20.2,3.6c-5,2.4-7.5,6.3-7.5,11.7c0,5,1.7,8.5,5,10.6s7.5,3.1,12.5,3.1c3.9,0,7.2-0.7,10.1-2
			s5.3-3,7.2-5.2c1.9-2.2,3.4-4.7,4.4-7.6s1.6-6,1.7-9.3v-5.1h-13.2V528.6z"/>
		<path d="M2030.1,498.6h-23.5v39.8c0,2.6,0.1,5,0.2,7.2s0.6,4.1,1.4,5.8c0.8,1.6,2,2.9,3.6,3.9s3.9,1.4,6.8,1.4
			c1.9,0,3.9-0.2,5.9-0.7s4-1.1,5.8-2l0.5,12.1c-2.3,1-4.8,1.8-7.6,2.2c-2.8,0.5-5.4,0.7-7.9,0.7c-4.8,0-8.6-0.6-11.4-1.9
			c-2.8-1.2-5-3-6.6-5.3s-2.6-5.1-3.1-8.4c-0.5-3.3-0.8-7.1-0.8-11.1v-43.7h-17.3v-11.2h17.3v-22.6h13.3v22.6h23.5v11.2H2030.1z"/>
		<path d="M2044.8,456.2c0-2.6,0.9-4.9,2.8-6.8c1.9-1.9,4.2-2.9,6.9-2.9s5,1,6.9,2.9s2.8,4.2,2.8,6.8c0,2.8-0.9,5.2-2.7,7
			s-4.1,2.7-7,2.7c-2.8,0-5.2-0.9-7-2.7S2044.8,459.1,2044.8,456.2z M2047.8,487.3h13.3v79.5h-13.3V487.3z"/>
		<path d="M2082.8,527.1c0-6.2,1.1-11.9,3.2-17c2.2-5.1,5.1-9.5,8.8-13.2s8.2-6.5,13.4-8.6c5.2-2,10.9-3.1,17-3.1s11.8,1,17,3.1
			c5.2,2,9.7,4.9,13.4,8.6s6.7,8.1,8.8,13.2c2.2,5.1,3.2,10.8,3.2,17s-1.1,11.9-3.2,17c-2.2,5.1-5.1,9.5-8.8,13.2s-8.2,6.5-13.4,8.6
			c-5.2,2-10.9,3.1-17,3.1s-11.8-1-17-3.1c-5.2-2-9.7-4.9-13.4-8.6c-3.7-3.7-6.7-8.1-8.8-13.2C2083.9,539,2082.8,533.4,2082.8,527.1
			z M2097.1,527.1c0,4.2,0.7,8.1,2,11.6c1.3,3.6,3.2,6.7,5.7,9.3c2.5,2.7,5.5,4.8,8.9,6.3c3.5,1.5,7.3,2.3,11.6,2.3
			s8.2-0.8,11.6-2.3c3.5-1.5,6.4-3.6,8.9-6.3s4.4-5.8,5.7-9.3c1.3-3.6,2-7.4,2-11.6c0-4.2-0.7-8.1-2-11.6c-1.3-3.6-3.2-6.7-5.7-9.3
			c-2.5-2.7-5.5-4.8-8.9-6.3c-3.5-1.5-7.3-2.3-11.6-2.3s-8.2,0.8-11.6,2.3c-3.5,1.5-6.4,3.6-8.9,6.3c-2.5,2.7-4.4,5.8-5.7,9.3
			S2097.1,522.9,2097.1,527.1z"/>
		<path d="M2188.4,506.2c0-3.6-0.1-7-0.3-10.2s-0.3-6.1-0.3-8.7h12.6c0,2.2,0.1,4.3,0.2,6.5c0.1,2.2,0.2,4.4,0.2,6.6h0.3
			c0.9-1.9,2.2-3.8,3.8-5.6c1.6-1.8,3.6-3.4,5.9-4.8c2.3-1.4,4.8-2.5,7.6-3.4c2.8-0.8,5.9-1.3,9.2-1.3c5.2,0,9.7,0.8,13.5,2.4
			s6.9,3.8,9.4,6.6c2.5,2.8,4.3,6.3,5.5,10.3s1.8,8.4,1.8,13.2v49.1h-13.3v-47.8c0-6.7-1.5-12-4.4-15.8c-2.9-3.9-7.5-5.8-13.8-5.8
			c-4.3,0-8,0.7-11.1,2.2s-5.7,3.6-7.6,6.3c-2,2.7-3.5,5.9-4.4,9.7c-1,3.7-1.4,7.9-1.4,12.4v38.8h-13.3L2188.4,506.2L2188.4,506.2z"
			/>
		<path d="M2331.8,546c2.6,3.3,5.5,5.9,8.6,7.8c3.1,1.9,7.1,2.9,11.8,2.9c2,0,4.1-0.2,6.2-0.7c2.1-0.5,4-1.2,5.7-2.2
			s3.1-2.3,4.1-3.8s1.5-3.4,1.5-5.5c0-2.2-0.5-3.9-1.4-5.3c-1-1.4-2.2-2.5-3.8-3.5s-3.4-1.7-5.4-2.3s-4.1-1.1-6.3-1.5
			c-3.7-0.8-7.3-1.7-10.7-2.7s-6.4-2.4-8.9-4s-4.6-3.8-6.1-6.4c-1.5-2.6-2.3-5.9-2.3-10c0-3.9,0.9-7.2,2.5-10.2
			c1.7-2.9,4-5.4,6.8-7.3s6-3.4,9.5-4.4s7.1-1.5,10.9-1.5c5.7,0,10.9,1.1,15.7,3.4s8.6,5.9,11.3,11l-11,7.3
			c-1.7-2.8-3.9-5.1-6.7-6.9s-6.1-2.6-10.1-2.6c-1.8,0-3.7,0.2-5.5,0.7c-1.9,0.5-3.5,1.1-5,2s-2.7,2.1-3.7,3.5s-1.4,3-1.4,4.8
			c0,1.7,0.5,3.1,1.6,4.3c1.1,1.2,2.5,2.2,4.4,3.1c1.9,0.9,4,1.7,6.5,2.4c2.4,0.7,5,1.2,7.6,1.7c3.5,0.7,6.9,1.6,10,2.6
			c3.2,1.1,5.9,2.5,8.3,4.3c2.4,1.8,4.2,4.1,5.6,6.8c1.4,2.7,2,6.1,2,10c0,4.5-0.9,8.4-2.7,11.6c-1.8,3.2-4.2,5.8-7.2,7.7
			c-3,2-6.4,3.4-10.2,4.3c-3.8,0.9-7.7,1.4-11.6,1.4c-6.8,0-12.7-1-17.6-3.1c-4.9-2.1-9.4-6-13.3-11.6L2331.8,546z"/>
		<path d="M2471.9,548c0,3.6,0.1,7,0.3,10.2s0.3,6.1,0.3,8.7H2460c0-2.2-0.1-4.3-0.2-6.5c-0.1-2.2-0.2-4.4-0.2-6.6h-0.3
			c-0.9,1.9-2.2,3.8-3.8,5.6s-3.6,3.4-5.9,4.8c-2.3,1.4-4.8,2.5-7.6,3.4s-5.9,1.3-9.2,1.3c-5.2,0-9.7-0.8-13.5-2.4
			c-3.8-1.6-6.9-3.8-9.4-6.6s-4.3-6.3-5.5-10.3s-1.8-8.4-1.8-13.2v-49.1h13.3v47.8c0,6.7,1.5,12,4.4,15.8c2.9,3.9,7.5,5.8,13.8,5.8
			c4.3,0,8-0.7,11.1-2.2s5.7-3.6,7.6-6.3c2-2.7,3.5-5.9,4.4-9.7c1-3.7,1.4-7.9,1.4-12.4v-38.8h13.3L2471.9,548L2471.9,548z"/>
		<path d="M2495.2,456.2c0-2.6,0.9-4.9,2.8-6.8c1.9-1.9,4.2-2.9,6.9-2.9s5,1,6.9,2.9s2.8,4.2,2.8,6.8c0,2.8-0.9,5.2-2.7,7
			s-4.1,2.7-7,2.7c-2.8,0-5.2-0.9-7-2.7C2496.1,461.4,2495.2,459.1,2495.2,456.2z M2498.2,487.3h13.3v79.5h-13.3V487.3z"/>
		<path d="M2539.6,546c2.6,3.3,5.5,5.9,8.6,7.8c3.1,1.9,7.1,2.9,11.8,2.9c2,0,4.1-0.2,6.2-0.7c2.1-0.5,4-1.2,5.7-2.2
			s3.1-2.3,4.1-3.8s1.5-3.4,1.5-5.5c0-2.2-0.5-3.9-1.4-5.3c-1-1.4-2.2-2.5-3.8-3.5s-3.4-1.7-5.4-2.3s-4.1-1.1-6.3-1.5
			c-3.7-0.8-7.3-1.7-10.7-2.7s-6.4-2.4-8.9-4s-4.6-3.8-6.1-6.4c-1.5-2.6-2.3-5.9-2.3-10c0-3.9,0.9-7.2,2.5-10.2
			c1.7-2.9,4-5.4,6.8-7.3s6-3.4,9.5-4.4s7.1-1.5,10.9-1.5c5.7,0,10.9,1.1,15.7,3.4s8.6,5.9,11.3,11l-11,7.3
			c-1.7-2.8-3.9-5.1-6.7-6.9s-6.1-2.6-10.1-2.6c-1.8,0-3.7,0.2-5.5,0.7c-1.9,0.5-3.5,1.1-5,2s-2.7,2.1-3.7,3.5s-1.4,3-1.4,4.8
			c0,1.7,0.5,3.1,1.6,4.3c1.1,1.2,2.5,2.2,4.4,3.1c1.9,0.9,4,1.7,6.5,2.4c2.4,0.7,5,1.2,7.6,1.7c3.5,0.7,6.9,1.6,10,2.6
			c3.2,1.1,5.9,2.5,8.3,4.3c2.4,1.8,4.2,4.1,5.6,6.8c1.4,2.7,2,6.1,2,10c0,4.5-0.9,8.4-2.7,11.6c-1.8,3.2-4.2,5.8-7.2,7.7
			c-3,2-6.4,3.4-10.2,4.3c-3.8,0.9-7.7,1.4-11.6,1.4c-6.8,0-12.7-1-17.6-3.1c-4.9-2.1-9.4-6-13.3-11.6L2539.6,546z"/>
		<path d="M2612,546c2.6,3.3,5.5,5.9,8.6,7.8c3.1,1.9,7.1,2.9,11.8,2.9c2,0,4.1-0.2,6.2-0.7c2.1-0.5,4-1.2,5.7-2.2s3.1-2.3,4.1-3.8
			s1.5-3.4,1.5-5.5c0-2.2-0.5-3.9-1.4-5.3c-1-1.4-2.2-2.5-3.8-3.5s-3.4-1.7-5.4-2.3s-4.1-1.1-6.3-1.5c-3.7-0.8-7.3-1.7-10.7-2.7
			s-6.4-2.4-8.9-4s-4.6-3.8-6.1-6.4c-1.5-2.6-2.3-5.9-2.3-10c0-3.9,0.9-7.2,2.5-10.2c1.7-2.9,4-5.4,6.8-7.3s6-3.4,9.5-4.4
			s7.1-1.5,10.9-1.5c5.7,0,10.9,1.1,15.7,3.4s8.6,5.9,11.3,11l-11,7.3c-1.7-2.8-3.9-5.1-6.7-6.9s-6.1-2.6-10.1-2.6
			c-1.8,0-3.7,0.2-5.5,0.7c-1.9,0.5-3.5,1.1-5,2s-2.7,2.1-3.7,3.5s-1.4,3-1.4,4.8c0,1.7,0.5,3.1,1.6,4.3c1.1,1.2,2.5,2.2,4.4,3.1
			c1.9,0.9,4,1.7,6.5,2.4c2.4,0.7,5,1.2,7.6,1.7c3.5,0.7,6.9,1.6,10,2.6c3.2,1.1,5.9,2.5,8.3,4.3c2.4,1.8,4.2,4.1,5.6,6.8
			c1.4,2.7,2,6.1,2,10c0,4.5-0.9,8.4-2.7,11.6c-1.8,3.2-4.2,5.8-7.2,7.7c-3,2-6.4,3.4-10.2,4.3c-3.8,0.9-7.7,1.4-11.6,1.4
			c-6.8,0-12.7-1-17.6-3.1c-4.9-2.1-9.4-6-13.3-11.6L2612,546z"/>
		<path d="M2753.7,552.4c-4.8,6.1-10,10.4-15.6,12.8c-5.7,2.4-12.2,3.7-19.7,3.7c-6.2,0-11.8-1.1-16.8-3.3s-9.2-5.2-12.7-8.9
			s-6.1-8.2-8-13.3s-2.8-10.5-2.8-16.3c0-6.1,1-11.8,3.1-16.9c2-5.2,4.9-9.6,8.5-13.3c3.6-3.7,7.9-6.5,12.9-8.6
			c5-2,10.4-3.1,16.3-3.1c5.6,0,10.6,0.9,15.3,2.8c4.6,1.9,8.6,4.6,12,8.2c3.3,3.6,5.9,7.9,7.7,13.1s2.7,11,2.7,17.6v4.2h-64.3
			c0.2,3.4,1,6.7,2.5,9.8c1.4,3.1,3.3,5.8,5.5,8.2c2.3,2.3,4.9,4.2,8,5.5c3.1,1.4,6.4,2,10,2c5.8,0,10.7-1,14.6-3.1
			c4-2,7.5-5,10.7-9L2753.7,552.4z M2742.3,520c-0.2-6.8-2.4-12.2-6.6-16.3c-4.2-4.1-10-6.1-17.3-6.1c-7.4,0-13.3,2-17.8,6.1
			s-7.3,9.5-8.2,16.3H2742.3z"/>
	</g>
	<g class="st0">
		<path d="M1503.9,660.3h13.3v11.6h0.3c3.6-4.3,7.8-7.6,12.7-10c4.8-2.4,10.1-3.6,15.9-3.6c6.2,0,11.9,1,17.1,3.1s9.5,5,13.2,8.8
			c3.6,3.7,6.5,8.2,8.5,13.3s3.1,10.7,3.1,16.7s-1,11.6-3.1,16.7c-2,5.1-4.8,9.5-8.4,13.3s-7.8,6.7-12.7,8.8
			c-4.9,2.1-10.1,3.1-15.6,3.1c-7.1,0-13.4-1.6-18.8-4.7c-5.4-3.1-9.3-6.9-11.8-11.5h-0.3v52.9H1504L1503.9,660.3L1503.9,660.3z
			 M1517.2,700.1c0,4.2,0.7,8.1,2,11.6c1.3,3.6,3.2,6.7,5.7,9.3c2.5,2.7,5.5,4.8,8.9,6.3c3.5,1.5,7.3,2.3,11.6,2.3
			c4.3,0,8.2-0.8,11.6-2.3c3.5-1.5,6.4-3.6,8.9-6.3s4.4-5.8,5.7-9.3c1.3-3.6,2-7.4,2-11.6c0-4.2-0.7-8.1-2-11.6
			c-1.3-3.6-3.2-6.7-5.7-9.3c-2.5-2.7-5.5-4.8-8.9-6.3c-3.5-1.5-7.3-2.3-11.6-2.3c-4.3,0-8.2,0.8-11.6,2.3c-3.5,1.5-6.4,3.6-8.9,6.3
			s-4.4,5.8-5.7,9.3C1517.8,692,1517.2,695.9,1517.2,700.1z"/>
		<path d="M1603.9,700.1c0-6.2,1.1-11.9,3.2-17c2.2-5.1,5.1-9.5,8.8-13.2c3.7-3.7,8.2-6.5,13.4-8.6c5.2-2,10.9-3.1,17-3.1
			s11.8,1,17,3.1c5.2,2,9.7,4.9,13.4,8.6c3.7,3.7,6.7,8.1,8.8,13.2c2.2,5.1,3.2,10.8,3.2,17s-1.1,11.9-3.2,17
			c-2.2,5.1-5.1,9.5-8.8,13.2c-3.7,3.7-8.2,6.5-13.4,8.6c-5.2,2-10.9,3.1-17,3.1s-11.8-1-17-3.1c-5.2-2-9.7-4.9-13.4-8.6
			c-3.7-3.7-6.7-8.1-8.8-13.2C1604.9,712,1603.9,706.4,1603.9,700.1z M1618.1,700.1c0,4.2,0.7,8.1,2,11.6c1.3,3.6,3.2,6.7,5.7,9.3
			c2.5,2.7,5.5,4.8,8.9,6.3c3.5,1.5,7.3,2.3,11.6,2.3c4.3,0,8.2-0.8,11.6-2.3c3.5-1.5,6.4-3.6,8.9-6.3s4.4-5.8,5.7-9.3
			c1.3-3.6,2-7.4,2-11.6c0-4.2-0.7-8.1-2-11.6c-1.3-3.6-3.2-6.7-5.7-9.3c-2.5-2.7-5.5-4.8-8.9-6.3c-3.5-1.5-7.3-2.3-11.6-2.3
			c-4.3,0-8.2,0.8-11.6,2.3c-3.5,1.5-6.4,3.6-8.9,6.3s-4.4,5.8-5.7,9.3S1618.1,695.9,1618.1,700.1z"/>
		<path d="M1778.8,721c0,3.6,0.1,7,0.3,10.2c0.2,3.2,0.3,6.1,0.3,8.7h-12.6c0-2.2-0.1-4.3-0.2-6.5s-0.2-4.4-0.2-6.6h-0.3
			c-0.9,1.9-2.2,3.8-3.8,5.6c-1.6,1.8-3.6,3.4-5.9,4.8c-2.3,1.4-4.8,2.5-7.6,3.4c-2.8,0.9-5.9,1.3-9.2,1.3c-5.2,0-9.7-0.8-13.5-2.4
			c-3.8-1.6-6.9-3.8-9.4-6.6s-4.3-6.3-5.5-10.3s-1.8-8.4-1.8-13.2v-49.1h13.3v47.8c0,6.7,1.5,12,4.4,15.8c2.9,3.9,7.5,5.8,13.8,5.8
			c4.3,0,8-0.7,11.1-2.2s5.7-3.6,7.6-6.3c2-2.7,3.5-5.9,4.4-9.7c1-3.7,1.4-7.9,1.4-12.4v-38.8h13.3L1778.8,721L1778.8,721z"/>
		<path d="M1803.9,679.2c0-3.6-0.1-7-0.3-10.2c-0.2-3.2-0.3-6.1-0.3-8.7h12.6c0,2.2,0.1,4.3,0.2,6.5s0.2,4.4,0.2,6.6h0.3
			c0.9-1.9,2.2-3.8,3.8-5.6c1.6-1.8,3.6-3.4,5.9-4.8c2.3-1.4,4.8-2.5,7.6-3.4c2.8-0.8,5.9-1.3,9.2-1.3c0.9,0,1.8,0.1,2.7,0.2
			c0.9,0.1,1.8,0.3,2.7,0.7l-0.8,13.4c-2.3-0.7-4.6-1-7.1-1c-8.2,0-14.1,2.6-17.8,7.9c-3.7,5.3-5.5,12.5-5.5,21.7V740H1804
			L1803.9,679.2L1803.9,679.2z"/>
		<path d="M1912.2,611.4h13.3v128.5h-13.3V611.4z"/>
		<path d="M1950.8,670.5c4.1-4.2,8.9-7.3,14.5-9.3s11.3-3,17.1-3c11.8,0,20.3,2.8,25.5,8.3c5.2,5.6,7.8,14,7.8,25.3V726
			c0,2.3,0.1,4.6,0.3,7.1c0.2,2.4,0.5,4.7,0.9,6.7h-12.7c-0.5-1.8-0.7-3.8-0.8-6c-0.1-2.2-0.1-4.2-0.1-5.9h-0.3
			c-2.6,4.1-6.1,7.4-10.5,10s-9.6,3.9-15.7,3.9c-4.1,0-7.9-0.5-11.5-1.5s-6.7-2.5-9.3-4.5c-2.7-2-4.8-4.4-6.4-7.4
			c-1.6-2.9-2.4-6.3-2.4-10.2c0-6.6,1.7-11.7,5.1-15.5s7.6-6.5,12.7-8.3c5-1.8,10.5-2.9,16.3-3.4s11.2-0.7,16.1-0.7h5.1v-2.4
			c0-5.8-1.7-10.1-5.2-13.1c-3.5-2.9-8.3-4.4-14.5-4.4c-4.3,0-8.5,0.7-12.7,2.1c-4.1,1.4-7.8,3.6-11,6.5L1950.8,670.5z
			 M1989.2,701.6c-8.5,0-15.2,1.2-20.2,3.6c-5,2.4-7.5,6.3-7.5,11.7c0,5,1.7,8.5,5,10.6s7.5,3.1,12.5,3.1c3.9,0,7.2-0.7,10.1-2
			s5.3-3,7.2-5.2c1.9-2.2,3.4-4.7,4.4-7.6c1-2.9,1.6-6,1.7-9.3v-5.1h-13.2V701.6z"/>
		<path d="M2086.6,660.3h13.3v11.6h0.3c3.6-4.3,7.8-7.6,12.7-10c4.8-2.4,10.1-3.6,15.9-3.6c6.2,0,11.9,1,17.1,3.1
			c5.2,2.1,9.5,5,13.2,8.8c3.6,3.7,6.5,8.2,8.5,13.3s3.1,10.7,3.1,16.7s-1,11.6-3.1,16.7c-2,5.1-4.8,9.5-8.4,13.3s-7.8,6.7-12.7,8.8
			s-10.1,3.1-15.6,3.1c-7.1,0-13.4-1.6-18.8-4.7c-5.4-3.1-9.3-6.9-11.8-11.5h-0.3v52.9h-13.3L2086.6,660.3L2086.6,660.3z
			 M2099.8,700.1c0,4.2,0.7,8.1,2,11.6c1.3,3.6,3.2,6.7,5.7,9.3c2.5,2.7,5.5,4.8,8.9,6.3c3.5,1.5,7.3,2.3,11.6,2.3s8.2-0.8,11.6-2.3
			c3.5-1.5,6.4-3.6,8.9-6.3s4.4-5.8,5.7-9.3c1.3-3.6,2-7.4,2-11.6c0-4.2-0.7-8.1-2-11.6c-1.3-3.6-3.2-6.7-5.7-9.3
			c-2.5-2.7-5.5-4.8-8.9-6.3c-3.5-1.5-7.3-2.3-11.6-2.3s-8.2,0.8-11.6,2.3c-3.5,1.5-6.4,3.6-8.9,6.3s-4.4,5.8-5.7,9.3
			S2099.8,695.9,2099.8,700.1z"/>
		<path d="M2191.1,679.2c0-3.6-0.1-7-0.3-10.2s-0.3-6.1-0.3-8.7h12.6c0,2.2,0.1,4.3,0.2,6.5c0.1,2.2,0.2,4.4,0.2,6.6h0.3
			c0.9-1.9,2.2-3.8,3.8-5.6s3.6-3.4,5.9-4.8c2.3-1.4,4.8-2.5,7.6-3.4c2.8-0.8,5.9-1.3,9.2-1.3c0.9,0,1.8,0.1,2.7,0.2
			c0.9,0.1,1.8,0.3,2.7,0.7l-0.8,13.4c-2.3-0.7-4.6-1-7.1-1c-8.2,0-14.1,2.6-17.8,7.9c-3.7,5.3-5.5,12.5-5.5,21.7V740h-13.3
			L2191.1,679.2L2191.1,679.2z"/>
		<path d="M2243.3,700.1c0-6.2,1.1-11.9,3.2-17c2.2-5.1,5.1-9.5,8.8-13.2s8.2-6.5,13.4-8.6c5.2-2,10.9-3.1,17-3.1s11.8,1,17,3.1
			c5.2,2,9.7,4.9,13.4,8.6c3.7,3.7,6.7,8.1,8.8,13.2c2.2,5.1,3.2,10.8,3.2,17s-1.1,11.9-3.2,17c-2.2,5.1-5.1,9.5-8.8,13.2
			s-8.2,6.5-13.4,8.6c-5.2,2-10.9,3.1-17,3.1s-11.8-1-17-3.1c-5.2-2-9.7-4.9-13.4-8.6c-3.7-3.7-6.7-8.1-8.8-13.2
			C2244.4,712,2243.3,706.4,2243.3,700.1z M2257.6,700.1c0,4.2,0.7,8.1,2,11.6c1.3,3.6,3.2,6.7,5.7,9.3c2.5,2.7,5.5,4.8,8.9,6.3
			c3.5,1.5,7.3,2.3,11.6,2.3s8.2-0.8,11.6-2.3c3.5-1.5,6.4-3.6,8.9-6.3s4.4-5.8,5.7-9.3c1.3-3.6,2-7.4,2-11.6c0-4.2-0.7-8.1-2-11.6
			c-1.3-3.6-3.2-6.7-5.7-9.3c-2.5-2.7-5.5-4.8-8.9-6.3c-3.5-1.5-7.3-2.3-11.6-2.3s-8.2,0.8-11.6,2.3c-3.5,1.5-6.4,3.6-8.9,6.3
			s-4.4,5.8-5.7,9.3C2258.2,692,2257.6,695.9,2257.6,700.1z"/>
		<path d="M2392.4,671.6h-23.5v39.8c0,2.6,0.1,5,0.2,7.2c0.1,2.2,0.6,4.1,1.4,5.8c0.8,1.6,2,2.9,3.6,3.9s3.9,1.4,6.8,1.4
			c1.9,0,3.9-0.2,5.9-0.7s4-1.1,5.8-2l0.5,12.1c-2.3,1-4.8,1.8-7.6,2.2c-2.8,0.5-5.4,0.7-7.9,0.7c-4.8,0-8.6-0.6-11.4-1.9
			c-2.8-1.2-5-3-6.6-5.3s-2.6-5.1-3.1-8.4c-0.5-3.3-0.8-7.1-0.8-11.1v-43.7h-17.3v-11.2h17.3v-22.6h13.3v22.6h23.5L2392.4,671.6
			L2392.4,671.6z"/>
		<path d="M2479.7,725.4c-4.8,6.1-10,10.4-15.6,12.8c-5.7,2.4-12.2,3.7-19.7,3.7c-6.2,0-11.8-1.1-16.8-3.3s-9.2-5.2-12.7-8.9
			s-6.1-8.2-8-13.3s-2.8-10.5-2.8-16.3c0-6.1,1-11.8,3.1-16.9c2-5.2,4.9-9.6,8.5-13.3s7.9-6.5,12.9-8.6c5-2,10.4-3.1,16.3-3.1
			c5.6,0,10.6,0.9,15.3,2.8c4.6,1.9,8.6,4.6,12,8.2c3.3,3.6,5.9,7.9,7.7,13.1c1.8,5.2,2.7,11,2.7,17.6v4.2h-64.3
			c0.2,3.4,1,6.7,2.5,9.8c1.4,3.1,3.3,5.8,5.5,8.2c2.3,2.3,4.9,4.2,8,5.5c3.1,1.4,6.4,2,10,2c5.8,0,10.7-1,14.6-3.1
			c4-2,7.5-5,10.7-9L2479.7,725.4z M2468.3,693c-0.2-6.8-2.4-12.2-6.6-16.3c-4.2-4.1-10-6.1-17.3-6.1c-7.4,0-13.3,2-17.8,6.1
			s-7.3,9.5-8.2,16.3H2468.3z"/>
		<path d="M2559.8,680.2c-2.8-3.4-5.9-5.9-9.2-7.4s-6.9-2.3-10.9-2.3c-4.4,0-8.3,0.8-11.7,2.3s-6.2,3.7-8.4,6.4s-3.9,5.9-5,9.4
			c-1.1,3.6-1.7,7.4-1.7,11.5s0.7,7.9,2,11.5s3.1,6.7,5.4,9.4c2.3,2.7,5.1,4.8,8.4,6.4c3.3,1.5,7,2.3,11,2.3
			c8.7,0,15.5-3.3,20.2-9.9l9.9,9.3c-3.9,4.4-8.4,7.6-13.6,9.7c-5.2,2-10.7,3.1-16.5,3.1c-6.1,0-11.7-1-16.8-3.1
			c-5.1-2-9.4-4.9-13-8.7s-6.3-8.2-8.3-13.3s-3-10.7-3-16.8c0-6,1-11.6,3-16.7c2-5.1,4.8-9.5,8.4-13.3c3.6-3.7,8-6.7,13-8.8
			s10.6-3.1,16.7-3.1c5.9,0,11.5,1,16.7,3.1s9.9,5.2,13.9,9.5L2559.8,680.2z"/>
		<path d="M2628.6,671.6h-23.5v39.8c0,2.6,0.1,5,0.2,7.2c0.1,2.2,0.6,4.1,1.4,5.8c0.8,1.6,2,2.9,3.6,3.9s3.9,1.4,6.8,1.4
			c1.9,0,3.9-0.2,5.9-0.7s4-1.1,5.8-2l0.5,12.1c-2.3,1-4.8,1.8-7.6,2.2c-2.8,0.5-5.4,0.7-7.9,0.7c-4.8,0-8.6-0.6-11.4-1.9
			c-2.8-1.2-5-3-6.6-5.3s-2.6-5.1-3.1-8.4c-0.5-3.3-0.8-7.1-0.8-11.1v-43.7h-17.3v-11.2h17.3v-22.6h13.3v22.6h23.5L2628.6,671.6
			L2628.6,671.6z"/>
		<path d="M2643.2,629.2c0-2.6,0.9-4.9,2.8-6.8c1.9-1.9,4.2-2.9,6.9-2.9s5,1,6.9,2.9s2.8,4.2,2.8,6.8c0,2.8-0.9,5.2-2.7,7
			s-4.1,2.7-7,2.7c-2.8,0-5.2-0.9-7-2.7C2644.1,634.4,2643.2,632.1,2643.2,629.2z M2646.3,660.3h13.3v79.5h-13.3V660.3z"/>
		<path d="M2681.3,700.1c0-6.2,1.1-11.9,3.2-17c2.2-5.1,5.1-9.5,8.8-13.2s8.2-6.5,13.4-8.6c5.2-2,10.9-3.1,17-3.1s11.8,1,17,3.1
			c5.2,2,9.7,4.9,13.4,8.6c3.7,3.7,6.7,8.1,8.8,13.2c2.2,5.1,3.2,10.8,3.2,17s-1.1,11.9-3.2,17c-2.2,5.1-5.1,9.5-8.8,13.2
			s-8.2,6.5-13.4,8.6c-5.2,2-10.9,3.1-17,3.1s-11.8-1-17-3.1c-5.2-2-9.7-4.9-13.4-8.6c-3.7-3.7-6.7-8.1-8.8-13.2
			C2682.4,712,2681.3,706.4,2681.3,700.1z M2695.6,700.1c0,4.2,0.7,8.1,2,11.6c1.3,3.6,3.2,6.7,5.7,9.3c2.5,2.7,5.5,4.8,8.9,6.3
			c3.5,1.5,7.3,2.3,11.6,2.3s8.2-0.8,11.6-2.3c3.5-1.5,6.4-3.6,8.9-6.3s4.4-5.8,5.7-9.3c1.3-3.6,2-7.4,2-11.6c0-4.2-0.7-8.1-2-11.6
			c-1.3-3.6-3.2-6.7-5.7-9.3c-2.5-2.7-5.5-4.8-8.9-6.3c-3.5-1.5-7.3-2.3-11.6-2.3s-8.2,0.8-11.6,2.3c-3.5,1.5-6.4,3.6-8.9,6.3
			s-4.4,5.8-5.7,9.3C2696.2,692,2695.6,695.9,2695.6,700.1z"/>
		<path d="M2786.9,679.2c0-3.6-0.1-7-0.3-10.2s-0.3-6.1-0.3-8.7h12.6c0,2.2,0.1,4.3,0.2,6.5c0.1,2.2,0.2,4.4,0.2,6.6h0.3
			c0.9-1.9,2.2-3.8,3.8-5.6s3.6-3.4,5.9-4.8c2.3-1.4,4.8-2.5,7.6-3.4c2.8-0.8,5.9-1.3,9.2-1.3c5.2,0,9.7,0.8,13.5,2.4
			c3.8,1.6,6.9,3.8,9.4,6.6s4.3,6.3,5.5,10.3s1.8,8.4,1.8,13.2v49.1H2843v-47.8c0-6.7-1.5-12-4.4-15.8c-2.9-3.9-7.5-5.8-13.8-5.8
			c-4.3,0-8,0.7-11.1,2.2s-5.7,3.6-7.6,6.3c-2,2.7-3.5,5.9-4.4,9.7c-1,3.7-1.4,7.9-1.4,12.4v38.8H2787v-60.7H2786.9z"/>
	</g>
	<g class="st0">
		<path d="M1575.6,898.4c-4.8,6.1-10,10.4-15.6,12.8c-5.7,2.4-12.2,3.7-19.7,3.7c-6.2,0-11.8-1.1-16.8-3.3s-9.2-5.2-12.7-8.9
			s-6.1-8.2-8-13.3s-2.8-10.5-2.8-16.3c0-6.1,1-11.8,3.1-16.9c2-5.2,4.9-9.6,8.5-13.3s7.9-6.5,12.9-8.6c5-2,10.4-3.1,16.3-3.1
			c5.6,0,10.6,0.9,15.3,2.8c4.6,1.9,8.6,4.6,12,8.2c3.3,3.6,5.9,7.9,7.7,13.1c1.8,5.2,2.7,11,2.7,17.6v4.2h-64.3
			c0.2,3.4,1,6.7,2.5,9.8c1.4,3.1,3.3,5.8,5.5,8.2c2.3,2.3,4.9,4.2,8,5.5c3.1,1.4,6.4,2,10,2c5.8,0,10.6-1,14.6-3.1
			c4-2,7.5-5,10.7-9L1575.6,898.4z M1564.2,866c-0.2-6.8-2.4-12.2-6.6-16.3s-10-6.1-17.3-6.1c-7.4,0-13.3,2-17.8,6.1
			s-7.3,9.5-8.2,16.3H1564.2z"/>
		<path d="M1642.6,844.6h-23.5v39.8c0,2.6,0.1,5,0.2,7.2s0.6,4.1,1.4,5.8c0.8,1.6,2,2.9,3.6,3.9s3.9,1.4,6.8,1.4
			c1.9,0,3.9-0.2,5.9-0.7s4-1.1,5.8-2l0.5,12.1c-2.3,1-4.8,1.8-7.6,2.2c-2.8,0.5-5.4,0.7-7.9,0.7c-4.8,0-8.6-0.6-11.4-1.9
			c-2.8-1.2-5-3-6.6-5.3s-2.6-5.1-3.1-8.4c-0.5-3.3-0.8-7.1-0.8-11.1v-43.7h-17.3v-11.2h17.3v-22.6h13.3v22.6h23.5v11.2H1642.6z"/>
		<path d="M1707.4,784.4h13.3v128.5h-13.3V784.4z"/>
		<path d="M1757.7,833.3h-12.9l11.4-40.8h15.5L1757.7,833.3z"/>
		<path d="M1793.4,843.5c4.1-4.2,8.9-7.3,14.5-9.3s11.3-3,17.1-3c11.8,0,20.3,2.8,25.5,8.3c5.2,5.6,7.8,14,7.8,25.3V899
			c0,2.3,0.1,4.6,0.3,7.1c0.2,2.4,0.5,4.7,0.9,6.7h-12.7c-0.5-1.8-0.7-3.8-0.8-6c-0.1-2.2-0.1-4.2-0.1-5.9h-0.3
			c-2.6,4.1-6.1,7.4-10.5,10s-9.6,3.9-15.7,3.9c-4.1,0-7.9-0.5-11.5-1.5s-6.7-2.5-9.3-4.5c-2.7-2-4.8-4.4-6.4-7.4
			c-1.6-2.9-2.4-6.3-2.4-10.2c0-6.6,1.7-11.7,5.1-15.5s7.6-6.5,12.7-8.3c5-1.8,10.5-2.9,16.3-3.4s11.2-0.7,16.1-0.7h5.1v-2.4
			c0-5.8-1.7-10.1-5.2-13.1c-3.5-2.9-8.3-4.4-14.5-4.4c-4.3,0-8.5,0.7-12.7,2.1c-4.1,1.4-7.8,3.6-11,6.5L1793.4,843.5z
			 M1831.8,874.6c-8.5,0-15.2,1.2-20.2,3.6c-5,2.4-7.5,6.3-7.5,11.7c0,5,1.7,8.5,5,10.6s7.5,3.1,12.5,3.1c3.9,0,7.2-0.7,10.1-2
			s5.3-3,7.2-5.2c1.9-2.2,3.4-4.7,4.4-7.6c1-2.9,1.6-6,1.7-9.3v-5.1h-13.2V874.6z"/>
		<path d="M1882.6,852.2c0-3.6-0.1-7-0.3-10.2c-0.2-3.2-0.3-6.1-0.3-8.7h12.6c0,2.2,0.1,4.3,0.2,6.5s0.2,4.4,0.2,6.6h0.3
			c0.9-1.9,2.2-3.8,3.8-5.6c1.6-1.8,3.6-3.4,5.9-4.8c2.3-1.4,4.8-2.5,7.6-3.4c2.8-0.8,5.9-1.3,9.2-1.3c4.3,0,7.9,0.5,10.8,1.6
			s5.3,2.4,7.2,3.9c1.9,1.5,3.4,3.2,4.5,4.9c1.1,1.8,2,3.3,2.6,4.7c2.9-4.8,6.3-8.5,10.2-11.1c3.9-2.7,8.8-4,15-4
			c5.7,0,10.4,0.8,14.3,2.3s7,3.7,9.3,6.6c2.4,2.9,4.1,6.4,5.1,10.5s1.5,8.8,1.5,13.9v48.3H1989v-47.6c0-2.7-0.3-5.4-0.8-8
			c-0.6-2.6-1.6-4.9-3.1-7c-1.5-2-3.5-3.7-5.9-4.9c-2.5-1.2-5.7-1.9-9.5-1.9c-2.8,0-5.5,0.6-8,1.7c-2.5,1.1-4.7,2.7-6.5,4.8
			c-1.9,2-3.3,4.5-4.4,7.4s-1.6,6.1-1.6,9.6v45.9h-13.3v-45c0-8.8-1.2-15.1-3.6-18.8s-6.3-5.5-11.7-5.5c-4.3,0-8,0.7-11.1,2.2
			s-5.7,3.6-7.6,6.3c-2,2.7-3.5,5.9-4.4,9.7c-1,3.7-1.4,7.9-1.4,12.4V913h-13.3v-60.8H1882.6z"/>
		<path d="M2098.5,898.4c-4.8,6.1-10,10.4-15.6,12.8c-5.7,2.4-12.2,3.7-19.7,3.7c-6.2,0-11.8-1.1-16.8-3.3s-9.2-5.2-12.7-8.9
			s-6.1-8.2-8-13.3s-2.8-10.5-2.8-16.3c0-6.1,1-11.8,3.1-16.9c2-5.2,4.9-9.6,8.5-13.3s7.9-6.5,12.9-8.6c5-2,10.4-3.1,16.3-3.1
			c5.6,0,10.7,0.9,15.3,2.8c4.6,1.9,8.6,4.6,12,8.2c3.3,3.6,5.9,7.9,7.7,13.1c1.8,5.2,2.7,11,2.7,17.6v4.2h-64.2
			c0.2,3.4,1,6.7,2.5,9.8c1.4,3.1,3.3,5.8,5.5,8.2c2.3,2.3,4.9,4.2,8,5.5c3.1,1.4,6.4,2,10,2c5.8,0,10.7-1,14.6-3.1
			c4-2,7.5-5,10.7-9L2098.5,898.4z M2087.1,866c-0.2-6.8-2.4-12.2-6.6-16.3c-4.2-4.1-10-6.1-17.3-6.1c-7.4,0-13.3,2-17.8,6.1
			s-7.3,9.5-8.2,16.3H2087.1z M2068,789.8h18.7l-24.3,24.5h-12.1L2068,789.8z"/>
		<path d="M2121.9,852.2c0-3.6-0.1-7-0.3-10.2s-0.3-6.1-0.3-8.7h12.6c0,2.2,0.1,4.3,0.2,6.5c0.1,2.2,0.2,4.4,0.2,6.6h0.3
			c0.9-1.9,2.2-3.8,3.8-5.6s3.6-3.4,5.9-4.8c2.3-1.4,4.8-2.5,7.6-3.4c2.8-0.8,5.9-1.3,9.2-1.3c5.2,0,9.7,0.8,13.5,2.4
			c3.8,1.6,6.9,3.8,9.4,6.6s4.3,6.3,5.5,10.3s1.8,8.4,1.8,13.2v49.1H2178v-47.8c0-6.7-1.5-12-4.4-15.8c-2.9-3.9-7.5-5.8-13.8-5.8
			c-4.3,0-8,0.7-11.1,2.2s-5.7,3.6-7.6,6.3c-2,2.7-3.5,5.9-4.4,9.7c-1,3.7-1.4,7.9-1.4,12.4v38.8H2122v-60.7H2121.9z"/>
		<path d="M2215.4,843.5c4.1-4.2,8.9-7.3,14.5-9.3s11.3-3,17.1-3c11.8,0,20.3,2.8,25.5,8.3c5.2,5.6,7.8,14,7.8,25.3V899
			c0,2.3,0.1,4.6,0.3,7.1c0.2,2.4,0.5,4.7,0.9,6.7h-12.7c-0.5-1.8-0.7-3.8-0.8-6s-0.1-4.2-0.1-5.9h-0.3c-2.6,4.1-6.1,7.4-10.5,10
			s-9.6,3.9-15.7,3.9c-4.1,0-7.9-0.5-11.5-1.5s-6.7-2.5-9.3-4.5c-2.7-2-4.8-4.4-6.4-7.4c-1.6-2.9-2.4-6.3-2.4-10.2
			c0-6.6,1.7-11.7,5.1-15.5s7.6-6.5,12.7-8.3c5-1.8,10.5-2.9,16.3-3.4s11.2-0.7,16.1-0.7h5.1v-2.4c0-5.8-1.7-10.1-5.2-13.1
			c-3.5-2.9-8.3-4.4-14.5-4.4c-4.3,0-8.5,0.7-12.7,2.1c-4.1,1.4-7.8,3.6-11,6.5L2215.4,843.5z M2253.8,874.6
			c-8.5,0-15.2,1.2-20.2,3.6c-5,2.4-7.5,6.3-7.5,11.7c0,5,1.7,8.5,5,10.6s7.5,3.1,12.5,3.1c3.9,0,7.2-0.7,10.1-2
			c2.9-1.3,5.3-3,7.2-5.2s3.4-4.7,4.4-7.6c1-2.9,1.6-6,1.7-9.3v-5.1h-13.2V874.6z"/>
		<path d="M2384,909.3c0,14.5-3.7,25.5-11.1,33.1c-7.4,7.5-18.2,11.3-32.2,11.3c-7.8,0-14.9-1.1-21.2-3.4
			c-6.3-2.3-12.3-6.2-17.9-11.7l9.5-10.9c4.2,4.5,8.6,8,13.3,10.3s10.1,3.5,16.2,3.5c5.9,0,10.8-0.9,14.7-2.6c3.9-1.8,7-4.1,9.3-7.1
			s3.9-6.4,4.8-10.3c0.9-3.9,1.4-7.9,1.4-12.1v-10.2h-0.3c-3.2,5.1-7.3,8.8-12.4,11.2s-10.3,3.6-15.6,3.6c-6.2,0-12-1-17.2-3.1
			c-5.2-2-9.7-4.9-13.4-8.5s-6.6-7.9-8.7-12.9c-2-5-3.1-10.4-3.1-16.3c0-6.5,1-12.3,3.1-17.5c2-5.2,4.9-9.6,8.6-13.2
			c3.7-3.6,8.1-6.3,13.3-8.2s11-2.9,17.3-2.9c2.7,0,5.4,0.3,8.2,0.9c2.7,0.6,5.4,1.6,7.9,2.9c2.5,1.3,4.8,2.9,6.9,4.9
			c2,2,3.7,4.3,5.1,6.9h0.3v-13.6h13.3v75.9H2384z M2314.3,873.1c0,4.1,0.7,7.8,2.2,11.3s3.5,6.5,6,9s5.5,4.6,8.9,6
			c3.4,1.5,7,2.2,10.9,2.2c4.5,0,8.6-0.8,12.1-2.4c3.5-1.6,6.5-3.7,8.9-6.4s4.3-5.7,5.5-9.2s1.9-7.1,1.9-11c0-4.3-0.7-8.2-2-11.8
			c-1.4-3.6-3.3-6.7-5.8-9.3s-5.5-4.6-9-6s-7.4-2.1-11.6-2.1c-4.2,0-8,0.8-11.5,2.3s-6.4,3.6-8.8,6.3c-2.4,2.7-4.3,5.8-5.7,9.3
			C2315,865,2314.3,868.9,2314.3,873.1z"/>
		<path d="M2479.6,898.4c-4.8,6.1-10,10.4-15.6,12.8c-5.7,2.4-12.2,3.7-19.7,3.7c-6.2,0-11.8-1.1-16.8-3.3s-9.2-5.2-12.7-8.9
			s-6.1-8.2-8-13.3s-2.8-10.5-2.8-16.3c0-6.1,1-11.8,3.1-16.9c2-5.2,4.9-9.6,8.5-13.3s7.9-6.5,12.9-8.6c5-2,10.4-3.1,16.3-3.1
			c5.6,0,10.6,0.9,15.3,2.8c4.6,1.9,8.6,4.6,12,8.2c3.3,3.6,5.9,7.9,7.7,13.1c1.8,5.2,2.7,11,2.7,17.6v4.2h-64.3
			c0.2,3.4,1,6.7,2.5,9.8c1.4,3.1,3.3,5.8,5.5,8.2c2.3,2.3,4.9,4.2,8,5.5c3.1,1.4,6.4,2,10,2c5.8,0,10.7-1,14.6-3.1
			c4-2,7.5-5,10.7-9L2479.6,898.4z M2468.2,866c-0.2-6.8-2.4-12.2-6.6-16.3c-4.2-4.1-10-6.1-17.3-6.1c-7.4,0-13.3,2-17.8,6.1
			s-7.3,9.5-8.2,16.3H2468.2z"/>
		<path d="M2503,852.2c0-3.6-0.1-7-0.3-10.2s-0.3-6.1-0.3-8.7h12.6c0,2.2,0.1,4.3,0.2,6.5c0.1,2.2,0.2,4.4,0.2,6.6h0.3
			c0.9-1.9,2.2-3.8,3.8-5.6s3.6-3.4,5.9-4.8c2.3-1.4,4.8-2.5,7.6-3.4c2.8-0.8,5.9-1.3,9.2-1.3c4.3,0,7.9,0.5,10.8,1.6
			c2.9,1.1,5.3,2.4,7.2,3.9s3.4,3.2,4.5,4.9c1.1,1.8,2,3.3,2.6,4.7c2.9-4.8,6.3-8.5,10.2-11.1c3.9-2.7,8.8-4,15-4
			c5.7,0,10.4,0.8,14.3,2.3c3.9,1.5,7,3.7,9.3,6.6s4.1,6.4,5.1,10.5s1.5,8.8,1.5,13.9v48.3h-13.3v-47.6c0-2.7-0.3-5.4-0.8-8
			c-0.6-2.6-1.6-4.9-3.1-7c-1.5-2-3.5-3.7-5.9-4.9c-2.5-1.2-5.7-1.9-9.5-1.9c-2.8,0-5.5,0.6-8,1.7c-2.5,1.1-4.7,2.7-6.5,4.8
			c-1.9,2-3.3,4.5-4.4,7.4c-1.1,2.9-1.6,6.1-1.6,9.6v45.9h-13.3v-45c0-8.8-1.2-15.1-3.6-18.8c-2.4-3.7-6.3-5.5-11.7-5.5
			c-4.3,0-8,0.7-11.1,2.2s-5.7,3.6-7.6,6.3c-2,2.7-3.5,5.9-4.4,9.7c-1,3.7-1.4,7.9-1.4,12.4V913H2503V852.2z"/>
		<path d="M2718.9,898.4c-4.8,6.1-10,10.4-15.6,12.8c-5.7,2.4-12.2,3.7-19.7,3.7c-6.2,0-11.8-1.1-16.8-3.3s-9.2-5.2-12.7-8.9
			s-6.1-8.2-8-13.3s-2.8-10.5-2.8-16.3c0-6.1,1-11.8,3.1-16.9c2-5.2,4.9-9.6,8.5-13.3s7.9-6.5,12.9-8.6c5-2,10.4-3.1,16.3-3.1
			c5.6,0,10.6,0.9,15.3,2.8c4.6,1.9,8.6,4.6,12,8.2c3.3,3.6,5.9,7.9,7.7,13.1c1.8,5.2,2.7,11,2.7,17.6v4.2h-64.3
			c0.2,3.4,1,6.7,2.5,9.8c1.4,3.1,3.3,5.8,5.5,8.2c2.3,2.3,4.9,4.2,8,5.5c3.1,1.4,6.4,2,10,2c5.8,0,10.7-1,14.6-3.1
			c4-2,7.5-5,10.7-9L2718.9,898.4z M2707.5,866c-0.2-6.8-2.4-12.2-6.6-16.3c-4.2-4.1-10-6.1-17.3-6.1c-7.4,0-13.3,2-17.8,6.1
			s-7.3,9.5-8.2,16.3H2707.5z"/>
		<path d="M2742.3,852.2c0-3.6-0.1-7-0.3-10.2s-0.3-6.1-0.3-8.7h12.6c0,2.2,0.1,4.3,0.2,6.5c0.1,2.2,0.2,4.4,0.2,6.6h0.3
			c0.9-1.9,2.2-3.8,3.8-5.6s3.6-3.4,5.9-4.8c2.3-1.4,4.8-2.5,7.6-3.4c2.8-0.8,5.9-1.3,9.2-1.3c5.2,0,9.7,0.8,13.5,2.4
			c3.8,1.6,6.9,3.8,9.4,6.6s4.3,6.3,5.5,10.3s1.8,8.4,1.8,13.2v49.1h-13.3v-47.8c0-6.7-1.5-12-4.4-15.8c-2.9-3.9-7.5-5.8-13.8-5.8
			c-4.3,0-8,0.7-11.1,2.2s-5.7,3.6-7.6,6.3c-2,2.7-3.5,5.9-4.4,9.7c-1,3.7-1.4,7.9-1.4,12.4v38.8h-13.3L2742.3,852.2L2742.3,852.2z"
			/>
		<path d="M2880.4,844.6h-23.5v39.8c0,2.6,0.1,5,0.2,7.2c0.1,2.2,0.6,4.1,1.4,5.8c0.8,1.6,2,2.9,3.6,3.9s3.9,1.4,6.8,1.4
			c1.9,0,3.9-0.2,5.9-0.7s4-1.1,5.8-2l0.5,12.1c-2.3,1-4.8,1.8-7.6,2.2c-2.8,0.5-5.4,0.7-7.9,0.7c-4.8,0-8.6-0.6-11.4-1.9
			c-2.8-1.2-5-3-6.6-5.3s-2.6-5.1-3.1-8.4c-0.5-3.3-0.8-7.1-0.8-11.1v-43.7h-17.3v-11.2h17.3v-22.6h13.3v22.6h23.5L2880.4,844.6
			L2880.4,844.6z"/>
	</g>
	<g class="st0">
		<path d="M1570.7,1071.8h-0.3c-2.5,4.5-6.4,8.4-11.8,11.5s-11.6,4.7-18.8,4.7c-5.6,0-10.8-1-15.6-3.1c-4.9-2.1-9.1-5-12.7-8.8
			c-3.6-3.7-6.4-8.2-8.4-13.3c-2-5.1-3.1-10.7-3.1-16.7s1-11.6,3.1-16.7c2-5.1,4.9-9.5,8.5-13.3c3.6-3.7,8-6.7,13.2-8.8
			s10.8-3.1,17.1-3.1c5.8,0,11.1,1.2,15.9,3.6c4.8,2.4,9,5.7,12.7,10h0.3v-60.5h13.3v128.5h-13.3L1570.7,1071.8L1570.7,1071.8z
			 M1570.7,1046.1c0-4.2-0.7-8.1-2-11.6c-1.3-3.6-3.2-6.7-5.7-9.3c-2.5-2.7-5.5-4.8-8.9-6.3c-3.5-1.5-7.3-2.3-11.6-2.3
			c-4.3,0-8.2,0.8-11.6,2.3c-3.5,1.5-6.4,3.6-8.9,6.3c-2.5,2.7-4.4,5.8-5.7,9.3c-1.3,3.6-2,7.5-2,11.6c0,4.2,0.7,8.1,2,11.6
			c1.3,3.6,3.2,6.7,5.7,9.3c2.5,2.7,5.5,4.8,8.9,6.3c3.5,1.5,7.3,2.3,11.6,2.3c4.3,0,8.2-0.8,11.6-2.3c3.5-1.5,6.4-3.6,8.9-6.3
			c2.5-2.7,4.4-5.8,5.7-9.3C1570.1,1054.2,1570.7,1050.3,1570.7,1046.1z"/>
		<path d="M1677.8,1067c0,3.6,0.1,7,0.3,10.2c0.2,3.2,0.3,6.1,0.3,8.7h-12.6c0-2.2-0.1-4.3-0.2-6.5s-0.2-4.4-0.2-6.6h-0.3
			c-0.9,1.9-2.2,3.8-3.8,5.6c-1.6,1.8-3.6,3.4-5.9,4.8s-4.8,2.5-7.6,3.4c-2.8,0.9-5.9,1.3-9.2,1.3c-5.2,0-9.7-0.8-13.5-2.4
			s-6.9-3.8-9.4-6.6c-2.5-2.8-4.3-6.3-5.5-10.3s-1.8-8.4-1.8-13.2v-49.1h13.3v47.8c0,6.7,1.5,12,4.4,15.8c2.9,3.9,7.5,5.8,13.8,5.8
			c4.3,0,8-0.7,11.1-2.2s5.7-3.6,7.6-6.3c2-2.7,3.5-5.9,4.4-9.7c1-3.7,1.4-7.9,1.4-12.4v-38.8h13.3L1677.8,1067L1677.8,1067z"/>
		<path d="M1749.5,1006.3h13.3v11.6h0.3c3.6-4.3,7.8-7.6,12.7-10c4.8-2.4,10.1-3.6,15.9-3.6c6.2,0,11.9,1,17.1,3.1s9.5,5,13.2,8.8
			c3.6,3.7,6.5,8.2,8.5,13.3c2,5.1,3.1,10.7,3.1,16.7s-1,11.6-3.1,16.7c-2,5.1-4.8,9.5-8.4,13.3s-7.8,6.7-12.7,8.8
			c-4.9,2.1-10.1,3.1-15.6,3.1c-7.1,0-13.4-1.6-18.8-4.7s-9.3-6.9-11.8-11.5h-0.3v52.9h-13.3L1749.5,1006.3L1749.5,1006.3z
			 M1762.8,1046.1c0,4.2,0.7,8.1,2,11.6c1.3,3.6,3.2,6.7,5.7,9.3c2.5,2.7,5.5,4.8,8.9,6.3c3.5,1.5,7.3,2.3,11.6,2.3
			c4.3,0,8.2-0.8,11.6-2.3c3.5-1.5,6.4-3.6,8.9-6.3c2.5-2.7,4.4-5.8,5.7-9.3c1.3-3.6,2-7.4,2-11.6s-0.7-8.1-2-11.6
			c-1.3-3.6-3.2-6.7-5.7-9.3c-2.5-2.7-5.5-4.8-8.9-6.3c-3.5-1.5-7.3-2.3-11.6-2.3c-4.3,0-8.2,0.8-11.6,2.3c-3.5,1.5-6.4,3.6-8.9,6.3
			c-2.5,2.7-4.4,5.8-5.7,9.3C1763.4,1038,1762.8,1041.9,1762.8,1046.1z"/>
		<path d="M1853,1016.5c4.1-4.2,8.9-7.3,14.5-9.3s11.3-3,17.1-3c11.8,0,20.3,2.8,25.5,8.3c5.2,5.6,7.8,14,7.8,25.3v34.2
			c0,2.3,0.1,4.6,0.3,7.1c0.2,2.4,0.5,4.7,0.9,6.7h-12.7c-0.5-1.8-0.7-3.8-0.8-6c-0.1-2.2-0.1-4.2-0.1-5.9h-0.3
			c-2.6,4.1-6.1,7.4-10.5,10s-9.6,3.9-15.7,3.9c-4.1,0-7.9-0.5-11.5-1.5s-6.7-2.5-9.3-4.5c-2.7-2-4.8-4.4-6.4-7.4
			c-1.6-2.9-2.4-6.3-2.4-10.2c0-6.6,1.7-11.7,5.1-15.5s7.6-6.5,12.7-8.3c5-1.8,10.5-2.9,16.3-3.4s11.2-0.7,16.1-0.7h5.1v-2.4
			c0-5.8-1.7-10.1-5.2-13.1c-3.5-2.9-8.3-4.4-14.5-4.4c-4.3,0-8.5,0.7-12.7,2.1c-4.1,1.4-7.8,3.6-11,6.5L1853,1016.5z
			 M1891.4,1047.6c-8.5,0-15.2,1.2-20.2,3.6s-7.5,6.3-7.5,11.7c0,5,1.7,8.5,5,10.6s7.5,3.1,12.5,3.1c3.9,0,7.2-0.7,10.1-2
			s5.3-3,7.2-5.2c1.9-2.2,3.4-4.7,4.4-7.6s1.6-6,1.7-9.3v-5.1h-13.2V1047.6z"/>
		<path d="M1971.5,1104.1c-1.4,3.4-2.7,6.5-4.2,9.3c-1.4,2.8-3.1,5.2-5.1,7.1c-2,2-4.4,3.5-7.1,4.6c-2.8,1.1-6.1,1.6-10.1,1.6
			c-1.9,0-3.9-0.1-6-0.3c-2.1-0.2-4.1-0.8-5.9-1.7l1.7-11.6c1.4,0.6,2.8,0.9,4.2,1.1c1.5,0.2,3.2,0.3,5.1,0.3c4.3,0,7.5-1.2,9.5-3.6
			s3.8-5.6,5.3-9.5l5.4-15l-33-80.1h15.5l24.6,62.4h0.3l23.6-62.4h14.4L1971.5,1104.1z"/>
		<path d="M2025.9,1065c2.6,3.3,5.5,5.9,8.6,7.8s7.1,2.9,11.8,2.9c2,0,4.1-0.2,6.2-0.7c2.1-0.5,4-1.2,5.7-2.2s3.1-2.3,4.1-3.8
			s1.5-3.4,1.5-5.5c0-2.2-0.5-3.9-1.4-5.3c-1-1.4-2.2-2.5-3.8-3.5s-3.4-1.7-5.4-2.3c-2-0.6-4.1-1.1-6.3-1.5
			c-3.7-0.8-7.3-1.7-10.7-2.7c-3.4-1-6.4-2.4-8.9-4s-4.6-3.8-6.1-6.4s-2.3-5.9-2.3-10c0-3.9,0.8-7.2,2.5-10.2c1.7-2.9,4-5.4,6.8-7.3
			c2.8-1.9,6-3.4,9.5-4.4s7.1-1.5,10.9-1.5c5.7,0,10.9,1.1,15.7,3.4c4.8,2.3,8.6,5.9,11.3,11l-11,7.3c-1.7-2.8-3.9-5.1-6.7-6.9
			c-2.8-1.8-6.1-2.6-10.1-2.6c-1.8,0-3.7,0.2-5.5,0.7c-1.9,0.5-3.5,1.1-5,2s-2.7,2.1-3.7,3.5c-1,1.4-1.4,3-1.4,4.8
			c0,1.7,0.5,3.1,1.6,4.3c1.1,1.2,2.5,2.2,4.4,3.1s4,1.7,6.5,2.4c2.4,0.7,5,1.2,7.6,1.7c3.5,0.7,6.9,1.6,10,2.6
			c3.2,1.1,5.9,2.5,8.3,4.3c2.4,1.8,4.2,4.1,5.6,6.8c1.4,2.7,2,6.1,2,10c0,4.5-0.9,8.4-2.7,11.6s-4.2,5.8-7.2,7.7
			c-3,2-6.4,3.4-10.2,4.3s-7.7,1.4-11.6,1.4c-6.8,0-12.7-1-17.6-3.1s-9.4-6-13.3-11.6L2025.9,1065z"/>
		<path d="M2095.6,1016.5c4.1-4.2,8.9-7.3,14.5-9.3s11.3-3,17.1-3c11.8,0,20.3,2.8,25.5,8.3c5.2,5.6,7.8,14,7.8,25.3v34.2
			c0,2.3,0.1,4.6,0.3,7.1c0.2,2.4,0.5,4.7,0.9,6.7H2149c-0.5-1.8-0.7-3.8-0.8-6s-0.1-4.2-0.1-5.9h-0.3c-2.6,4.1-6.1,7.4-10.5,10
			s-9.6,3.9-15.7,3.9c-4.1,0-7.9-0.5-11.5-1.5s-6.7-2.5-9.3-4.5c-2.7-2-4.8-4.4-6.4-7.4c-1.6-2.9-2.4-6.3-2.4-10.2
			c0-6.6,1.7-11.7,5.1-15.5s7.6-6.5,12.7-8.3c5-1.8,10.5-2.9,16.3-3.4s11.2-0.7,16.1-0.7h5.1v-2.4c0-5.8-1.7-10.1-5.2-13.1
			c-3.5-2.9-8.3-4.4-14.5-4.4c-4.3,0-8.5,0.7-12.7,2.1c-4.1,1.4-7.8,3.6-11,6.5L2095.6,1016.5z M2134,1047.6
			c-8.5,0-15.2,1.2-20.2,3.6s-7.5,6.3-7.5,11.7c0,5,1.7,8.5,5,10.6s7.5,3.1,12.5,3.1c3.9,0,7.2-0.7,10.1-2c2.9-1.3,5.3-3,7.2-5.2
			s3.4-4.7,4.4-7.6s1.6-6,1.7-9.3v-5.1H2134V1047.6z"/>
		<path d="M2264.2,1082.3c0,14.5-3.7,25.5-11.1,33.1c-7.4,7.5-18.2,11.3-32.2,11.3c-7.8,0-14.9-1.1-21.2-3.4s-12.3-6.2-17.9-11.7
			l9.5-10.9c4.2,4.5,8.6,8,13.3,10.3s10.1,3.5,16.2,3.5c5.9,0,10.8-0.9,14.7-2.6c3.9-1.8,7-4.1,9.3-7.1s3.9-6.4,4.8-10.3
			c0.9-3.9,1.4-7.9,1.4-12.1v-10.2h-0.3c-3.2,5.1-7.3,8.8-12.4,11.2s-10.3,3.6-15.6,3.6c-6.2,0-12-1-17.2-3.1
			c-5.2-2-9.7-4.9-13.4-8.5s-6.6-7.9-8.7-12.9c-2-5-3.1-10.4-3.1-16.3c0-6.5,1-12.3,3.1-17.5c2-5.2,4.9-9.6,8.6-13.2
			c3.7-3.6,8.1-6.3,13.3-8.2s11-2.9,17.3-2.9c2.7,0,5.4,0.3,8.2,0.9c2.7,0.6,5.4,1.6,7.9,2.9c2.5,1.3,4.8,2.9,6.9,4.9
			c2,2,3.7,4.3,5.1,6.9h0.3v-13.6h13.3v75.9H2264.2z M2194.5,1046.1c0,4.1,0.7,7.8,2.2,11.3s3.5,6.5,6,9c2.6,2.5,5.5,4.6,8.9,6
			c3.4,1.5,7,2.2,10.9,2.2c4.5,0,8.6-0.8,12.1-2.4s6.5-3.7,8.9-6.4c2.4-2.7,4.3-5.7,5.5-9.2s1.9-7.1,1.9-11c0-4.3-0.7-8.2-2-11.8
			c-1.4-3.6-3.3-6.7-5.8-9.3c-2.5-2.6-5.5-4.6-9-6s-7.4-2.1-11.6-2.1c-4.2,0-8,0.8-11.5,2.3s-6.4,3.6-8.8,6.3
			c-2.4,2.7-4.3,5.8-5.7,9.3C2195.2,1038,2194.5,1041.9,2194.5,1046.1z"/>
		<path d="M2359.7,1071.4c-4.8,6.1-10,10.4-15.6,12.8c-5.7,2.4-12.2,3.7-19.7,3.7c-6.2,0-11.8-1.1-16.8-3.3c-5-2.2-9.2-5.2-12.7-8.9
			c-3.5-3.7-6.1-8.2-8-13.3c-1.9-5.1-2.8-10.5-2.8-16.3c0-6.1,1-11.8,3.1-16.9c2-5.2,4.9-9.6,8.5-13.3s7.9-6.5,12.9-8.6
			c5-2,10.4-3.1,16.3-3.1c5.6,0,10.6,0.9,15.3,2.8c4.6,1.9,8.6,4.6,12,8.2c3.3,3.6,5.9,7.9,7.7,13.1c1.8,5.2,2.7,11,2.7,17.6v4.2
			h-64.3c0.2,3.4,1,6.7,2.5,9.8c1.4,3.1,3.3,5.8,5.5,8.2c2.3,2.3,4.9,4.2,8,5.5c3.1,1.4,6.4,2,10,2c5.8,0,10.7-1,14.6-3.1
			c4-2,7.5-5,10.7-9L2359.7,1071.4z M2348.3,1039c-0.2-6.8-2.4-12.2-6.6-16.3c-4.2-4.1-10-6.1-17.3-6.1c-7.4,0-13.3,2-17.8,6.1
			c-4.5,4.1-7.3,9.5-8.2,16.3H2348.3z"/>
	</g>
</g>
</svg>
